<svg xmlns="http://www.w3.org/2000/svg" xmlns:xlink="http://www.w3.org/1999/xlink" version="1.1" x="0px" y="0px" viewBox="0 0 100 125" enable-background="new 0 0 100 100" xml:space="preserve"><g><path d="M95,44.2c-0.3-0.8-1.8-1.2-2.9-1.4c-1.4-1.8-2.8-3.1-3.9-4c-0.8-0.7-1.5-1.3-1.6-1.7c-0.2-0.5,0.4-2.4,1.1-3.8   c0.1-0.2,0.1-0.4,0-0.6c-0.1-0.2-0.3-0.3-0.5-0.2c-2.4,0.2-6.4,2.7-7.2,3.3l-4.6-0.2c-3.4,0-7.6,0-12.1-0.1c0.1-1.2,1.1-2,1.1-2.1   c0.2-0.1,0.3-0.4,0.2-0.6c0-0.2-0.2-0.4-0.4-0.4c-2.4-0.6-3.5,0-4.5,0.6c-0.4,0.2-0.7,0.4-1.1,0.5c-1,0.3-2.5,1.2-3.6,1.9   c-9.2-0.1-16.8-0.3-20.5-0.5c-2.5-0.1-4.2-0.3-5.6-0.5c-1.2-0.2-2.1-0.3-3.1-0.3c-1.3,0-2.5,0.3-3.8,0.9c-1.3,0.5-3.3,1.2-5.5,1.9   c-5.6,1.8-9.6,3.1-10.5,4.6C5.2,42.3,5,43,5,43.7c0,0,0,0,0,0.1c0,0,0,0,0,0.1c0.5,2,2.5,4.3,4.3,4.9c0,0,0,0,0,0c0,0,0,0,0,0   c0.7,0.2,1.6,0.3,2.5,0.5c2.3,0.4,5.1,1,6.6,1.7c2.7,1.2,5.8,2.1,9.1,3c0,0.2,0,0.4,0,0.6c0,0.2,0.1,0.6,0,0.7   c-0.1,0.2-0.1,0.4,0,0.6c0.3,0.5,1.2,2,1.4,2.6c0.1,0.1,0.1,0.5,0.3,0.9c0.6,2.1,1.7,5.9,3.6,7.2c0.3,0.3,1.5,1.3,2.5,1.3   c0,0,0,0,0,0c0.4,0,0.9-0.2,1.1-0.6c0.3-0.4,0.3-0.8,0.2-1.3c-0.2-0.5-0.4-1.2-0.6-2c-0.2-1-0.3-2.6-0.3-4.3c0-1.3-0.1-2.6-0.2-3.8   c0.3,0,0.6,0.1,0.9,0.1c0.4,0,0.9,0.1,1.2,0.1c1.8,1.6,3.3,2.6,4.8,3.7c1.1,0.7,2.2,1.5,3.5,2.6c2,1.5,4.4,2.3,7.1,2.3   c4,0,7.3-1.7,7.5-1.8c0.2-0.1,0.3-0.3,0.3-0.5c0-0.2-0.1-0.4-0.3-0.5c-0.1-0.1-1-0.6-5.1-1.7c-2.4-0.7-4.4-2.1-6.2-3.5   c13.5-1.2,21.2-7.4,25-10.5c0.6-0.5,1.1-0.9,1.5-1.2c2.4-1.7,3.8-2.5,4.4-2.8c3.5,2.5,8.5,3.6,11.7,3.6c2,0,2.4-0.4,2.5-0.6   C95.1,44.8,95,44.4,95,44.2z M35.7,66.5c0,0-0.1,0.1-0.2,0.1c-0.5,0-1.3-0.6-1.8-1c0,0-0.1,0-0.1-0.1c-1.6-1-2.6-4.9-3.1-6.5   c-0.1-0.5-0.2-0.8-0.3-1c-0.3-0.7-1.1-2-1.4-2.6c0-0.3,0-0.6,0-1c0-0.1,0-0.1,0-0.2c0.9,0.2,1.9,0.5,2.9,0.7   c0.9,0.2,1.9,0.5,2.8,0.7c0.2,1.2,0.2,2.7,0.3,4.1c0.1,1.7,0.1,3.3,0.4,4.5c0.2,0.9,0.4,1.6,0.6,2.1C35.8,66.4,35.7,66.5,35.7,66.5   z M34.8,54.5c-1-0.2-1.9-0.5-2.9-0.7c-4.7-1.2-9.2-2.3-12.9-3.9c-1.2-0.5-2.9-1-4.7-1.3c0.7-0.1,1.4-0.2,1.9-0.3   c1.6,0.6,11.9,4.4,19.3,5.7c0.3,0.3,0.5,0.5,0.8,0.8C35.7,54.7,35.1,54.6,34.8,54.5z M32.3,49.6c0.1,0.3,0.2,0.6,0.3,0.9   c-3-0.9-6.9-2.3-9.3-3.2C26.3,47.4,29.3,48.1,32.3,49.6z M20.3,47.4C20.4,47.4,20.4,47.4,20.3,47.4c0.1,0.1,8.3,3.2,13.3,4.5   c0.1,0.1,0.2,0.2,0.3,0.3c0.1,0.1,0.2,0.2,0.3,0.3c-5.8-1.2-12.8-3.6-16-4.8C18.9,47.6,19.6,47.5,20.3,47.4z M58.9,62.4   c-1.3,0.5-3.4,1.1-5.7,1.1c-2.5,0-4.6-0.7-6.4-2.1c-1.4-1.1-2.5-1.8-3.6-2.6c-2.5-1.7-4.6-3.2-8.5-7.4c-0.6-0.6-1.2-1.4-1.4-2.4   c0-0.3-0.1-0.5-0.1-0.6c-0.1-0.2,0-0.4,0.1-0.6c0.1-0.2,0.4-0.3,0.8-0.3c0.1,0,0.3,0,0.5,0.1l0.3,0.1c1,0.2,2.4,0.5,3.8,2.2   c0,0,0,0,0.1,0.1c0.1,0.1,0.2,0.3,0.2,0.4c0,0.1-0.1,0.3-0.2,0.4c-0.2,0.1-0.2,0.3-0.2,0.5c0,0.2,0.2,0.4,0.4,0.4   c0,0,4.6,1.8,6.9,3.4c0.6,0.4,1.3,1,2,1.6c2,1.7,4.5,3.7,7.6,4.6C57,61.8,58.2,62.1,58.9,62.4z M92.1,44.6c-2.6,0-7.8-1-11.3-3.6   c-0.2-0.1-0.4-0.2-0.6-0.1c-0.1,0-1.6,0.7-4.9,3c-0.4,0.3-1,0.7-1.6,1.2c-3.8,3.1-11.7,9.4-25.6,10.3c-0.6-0.5-1.3-1.1-1.9-1.5   c-1.8-1.3-5-2.7-6.4-3.3c0.1-0.2,0.1-0.4,0.1-0.5c0-0.7-0.5-1.1-0.6-1.3c-1.6-1.9-3.2-2.2-4.3-2.5l-0.2-0.1c-1-0.2-1.9,0-2.4,0.6   c-0.2,0.3-0.3,0.7-0.3,1c-5.2-2.3-10.4-2.7-15.6-1.2l-0.4,0.1c-1.8,0.5-4.8,0.5-6.5,0.5c-1.2-0.5-2.6-1.9-3.2-3.3   c0.4,0,0.8,0,1.2,0C8.1,44.3,9,44.1,10,44c3.2-0.5,8.5-1.3,10.6-0.9l2.8,0.6c0.3,0.1,0.6-0.1,0.7-0.4c0.1-0.3-0.1-0.6-0.4-0.7   L20.8,42c-2.3-0.5-7.5,0.3-11,0.9c-1,0.2-1.8,0.3-2.3,0.3c-0.4,0-0.9,0-1.3,0c0.1-0.3,0.2-0.7,0.5-1c0.8-1.2,6-2.9,9.9-4.1   c2.2-0.7,4.3-1.4,5.6-1.9c1.3-0.5,2.2-0.8,3.4-0.8c0.8,0,1.8,0.1,2.9,0.3c1.4,0.2,3.2,0.4,5.7,0.5c3.7,0.2,11.4,0.4,20.7,0.5   c0.1,0,0.2,0,0.3-0.1c1.5-1,2.8-1.6,3.5-1.8c0.5-0.2,0.9-0.4,1.3-0.6c0.8-0.4,1.5-0.8,2.7-0.7c-0.5,0.6-0.9,1.6-0.7,2.8   c0,0.3,0.3,0.5,0.6,0.5c4.7,0,9.1,0.1,12.6,0.1l4.8,0.2c0.1,0,0.2,0,0.3-0.1c1-0.7,3.8-2.4,5.8-3c-0.4,1.1-1,2.8-0.7,3.6   c0.2,0.7,0.9,1.3,2,2.2c1.2,1,2.6,2.3,3.9,4c0.1,0.1,0.2,0.2,0.4,0.2c0.8,0.1,1.7,0.4,2.1,0.6C93.5,44.5,93,44.6,92.1,44.6z"/><path d="M27.8,41.4c-0.9-0.1-1.2-0.4-1.2-0.4c0.4,0.7,0.6,1.3,1.6,1.4c1.1,0.1,1.6-1.4,1.6-1.4S28.9,41.5,27.8,41.4z"/></g></svg>