<?xml version="1.0" encoding="utf-8"?>
<!-- Generator: Adobe Illustrator 21.0.1, SVG Export Plug-In . SVG Version: 6.00 Build 0)  -->
<svg version="1.1" id="Calque_1" xmlns="http://www.w3.org/2000/svg" xmlns:xlink="http://www.w3.org/1999/xlink" x="0px" y="0px"
	 viewBox="0 0 432 432" style="enable-background:new 0 0 432 432;" xml:space="preserve">
<style type="text/css">
	.st0{fill:#C77B32;}
	.st1{fill:#D4145A;}
	.st2{fill:#65C8D0;}
	.st3{fill:#999999;}
	.st4{fill:#BA9BC9;}
	.st5{fill:#808080;}
	.st6{fill:#C1272D;}
	.st7{fill:#DB648C;}
	.st8{fill:#39B54A;}
	.st9{fill:#FFA940;}
	.st10{fill:#29ABE2;}
	.st11{fill:#00A99D;}
</style>
<g>
	<g>
		<path d="M163.2,126.9c0.2-0.7,0.5-1.5,0.7-2.2c1.8-5.5,4.6-10.4,8.7-14.6c0.7-0.7,1.4-1.3,2.2-1.9c3-2.2,5.6-0.8,7.1,1.5
			c1.1,1.7,1.5,3.6,1.7,5.6c0.5,4.1,0.6,8.3,0.7,12.4c0,4.3,0.2,8.5,0.3,12.8c0,0.5,0.2,1,0.3,1.8c0.4-0.5,0.7-0.8,0.9-1.1
			c1.2-2.2,2.4-4.5,3.4-6.7c1.3-2.8,2.3-5.6,3.5-8.4c0.7-1.5,0.9-3,0.9-4.6c0-2.9,0.5-5.6,1.6-8.3c0.7-1.7,1.7-3.2,3.1-4.4
			c2.6-2.3,5.7-2.2,8.1,0.3c1.8,2,2.8,4.3,2.7,7c-0.1,2.6-1.3,4.6-3.5,5.9c-1.5,0.9-3,1.4-4.7,1.7c-0.6,0.1-1.2,0.2-1.8,0.3
			c0.1,2.1,0.3,4.1,0.8,6c0.6,2.5,1.5,4.9,2.8,7.1c0.1,0.2,0.2,0.4,0.4,0.6c1.5,2.1,3.2,2.5,5.5,1.3c1.8-0.9,3.3-2.2,4.3-3.9
			c1.4-2.4,2.7-5,4.1-7.5c0-0.1,0.1-0.2,0.1-0.2c1-1.8,1.3-3.7,1.3-5.7c-0.1-3.2,0.4-6.4,1.9-9.3c0.7-1.3,1.5-2.5,2.7-3.5
			c2.5-2.1,5.6-2.1,8.3-0.1c2.4,1.8,3.5,4.3,3.5,7.3c0,2.6-1.4,4.5-3.5,5.8c-1.8,1.1-3.9,1.7-6,2c-0.4,0.1-0.8,0.1-1.3,0.2
			c0.1,1,0.1,1.9,0.3,2.9c0.5,3.8,1.6,7.3,3.5,10.6c0.4,0.7,0.8,1.3,1.3,1.8c1.1,1.3,2.6,1.6,4.1,0.9c0.9-0.4,1.9-1,2.6-1.7
			c1.2-1.1,2.4-2.3,3.4-3.7c1.8-2.4,3.5-4.9,5.2-7.4c0.3-0.5,0.5-1.2,0.6-1.8c0.8-3.9,1.9-7.8,4.5-11c1.8-2.2,4-3.4,6.9-3
			c2.1,0.3,3.8,1.5,5.1,3.1c1,1.1,1.7,2.4,1.7,4c0,0.2,0.1,0.5-0.1,0.7c-0.1,0.2-0.4,0.5-0.6,0.6c-0.2,0.1-0.5-0.2-0.7-0.3
			c-0.1-0.1-0.1-0.2-0.2-0.3c-1-2.1-2.8-2.8-4.8-3.4c-1-0.3-1.8,0.1-2.5,0.8c-1,1.1-1.7,2.3-2.3,3.7c-2.4,5.5-2.9,11.2-0.9,16.9
			c0.2,0.5,0.4,1,0.6,1.4c0.5,1,1.1,1.3,2.2,0.8c0.7-0.3,1.3-0.7,1.8-1.1c2-1.5,3.6-3.4,5.1-5.4c1.4-2,2.7-4,4-6
			c0.4-0.6,0.5-1.2,0.6-1.9c0.3-5.1,0.6-10.2,0.9-15.3c0.1-1.8,0.4-3.6,1.2-5.2c0.3-0.5,0.6-1,1-1.3c0.9-0.9,2.3-0.6,2.7,0.7
			c0.2,0.7,0.4,1.6,0.4,2.4c0,2.5-0.1,5-0.3,7.6c-0.4,6.3-0.7,12.6-0.4,18.9c0.1,2.9,0.6,5.7,0.9,8.6c0.1,0.5,0.3,1.1,0.6,1.6
			c0.5,1,1.3,1.3,2.3,0.8c0.4-0.2,0.8-0.4,1.1-0.7c0.8-0.9,1.6-1.8,2.2-2.8c2-3.3,3.3-6.9,4.5-10.6c0.7-2,1.4-4,2.1-6
			c0.1-0.4,0.4-0.8,0.6-1.2c0.2-0.3,0.5-0.6,0.9-0.3c0.4,0.2,0.3,0.6,0.2,1c-0.5,1.7-1.1,3.4-1.6,5c-1,3.1-2,6.2-3.2,9.2
			c-0.7,1.8-1.7,3.4-2.7,5.1c-0.7,1.1-1.7,2-2.8,2.8c-2.2,1.4-4.5,1.3-6.3-0.7c-0.9-1-1.6-2.1-2.1-3.3c-1.4-3.1-1.9-6.4-2.2-9.8
			c-0.1-0.7-0.1-1.3-0.4-2c-0.6,0.9-1.1,1.8-1.7,2.7c-1.3,1.9-2.6,3.9-4.1,5.6c-1.1,1.3-2.4,2.4-3.8,3.5c-2.7,2-5.5,1.3-7.5-1.3
			c-1.5-2-2.4-4.2-2.9-6.7c-0.2-1.1-0.4-2.1-0.6-3.4c-0.3,0.3-0.5,0.6-0.7,0.8c-1.6,2.2-3.1,4.5-4.8,6.7c-1.3,1.7-2.8,3.2-4.6,4.4
			c-2.7,1.8-5.5,1.9-8.3,0.4c-1.5-0.8-2.6-2-3.6-3.3c-2.1-2.9-3-6.3-3.6-9.8c-0.1-0.5-0.2-1-0.3-1.8c-0.3,0.6-0.5,1-0.7,1.3
			c-1,2-1.8,4-2.9,5.9c-1.6,3-3.8,5.5-7,7c-2.9,1.4-5.5,0.8-8-0.9c-3-2.2-4.4-5.4-5.3-8.9c-0.3-0.9-0.4-1.9-0.5-2.8
			c0-0.2-0.1-0.4-0.4-0.7c-0.4,0.9-0.8,1.9-1.1,2.8c-0.9,2.4-1.8,4.9-2.8,7.3c-0.7,1.8-1.5,3.5-2.8,4.8c-0.1,0.1-0.3,0.3-0.4,0.4
			c-1.4,1.3-3.2,1.1-4.2-0.5c-0.5-0.8-0.9-1.8-1.3-2.7c-1.3-3.3-1.8-6.8-2.1-10.3c-0.3-4-0.4-8-0.7-12c-0.1-1.9-0.4-3.7-0.8-5.6
			c-0.5-2.1-0.7-2.4-2.8-1c-2,1.3-3.6,3.1-5,5.1c-3.1,4.4-5.1,9.2-6,14.5c-0.1,0.7,0,1.4,0,2c0,1,0.1,2.1,0.1,3.1
			c0,0.7-0.3,1.3-1,1.6c-0.6,0.3-1.4,0.1-1.9-0.6c-0.4-0.5-0.8-1.2-1.1-1.8c-1.2-2.9-1.9-5.9-2.4-9c-0.4-2.4-0.8-4.7-1.2-7.1
			c-0.5-3.2-0.9-6.3-1.3-9.5c-0.1-0.7,0.1-1.5,0.2-2.3c0.2-0.8,0.7-1.4,1.5-1.5c0.8-0.1,1.5,0.3,1.9,1c0.6,1.4,1.2,2.9,1.6,4.4
			c0.7,3,1.2,6,1.7,8.9c0.4,2,0.7,4.1,1.1,6.1C163.1,126.9,163.2,126.9,163.2,126.9z M223.7,121.7c2,0.1,3.9-0.1,5.6-0.8
			c1.9-0.8,3.2-2.2,3.3-4.3c0.1-2.2-0.5-4.2-2.5-5.5c-1.7-1.1-3.2-0.8-4.3,0.9c-0.6,0.9-1,2-1.3,3.1
			C223.9,117.1,223.5,119.3,223.7,121.7z M199.1,121.8c2.4-0.2,4.6-0.6,6.6-1.9c1-0.7,1.6-1.7,1.8-2.9c0.4-2.5-0.4-4.6-2.2-6.3
			c-1.3-1.2-2.5-1.1-3.6,0.3c-0.3,0.3-0.5,0.7-0.7,1.1c-0.8,1.8-1.4,3.7-1.7,5.7C199.1,119.2,198.8,120.4,199.1,121.8z"/>
		<path d="M185.3,353.7c-0.7-1-1.4-2.1-2.2-3.1c-1.5-2.1-3.2-4.1-4.6-6.3c-1.3-1.9-2.4-3.9-2.7-6.2c-0.4-3.1,0.2-5.9,2.1-8.4
			c1.7-2.1,4.2-2.5,6.5-1.1c0.6,0.4,1.2,0.8,1.7,1.3c2.4,2.5,3.9,5.4,4,9c0,0.5,0,1-0.1,1.4c-0.1,0.7-0.5,1.1-1.1,1.1
			c-0.6-0.1-0.9-0.5-1-1c-0.1-0.6-0.2-1.1-0.2-1.7c-0.3-2.6-1.3-4.9-3-6.8c-0.4-0.4-0.8-0.8-1.3-1c-1.2-0.6-2.1-0.4-2.7,0.8
			c-0.9,1.8-1.1,3.5-0.4,5.4c0.6,1.5,1.5,2.8,2.5,4c2.4,2.8,4.7,5.6,7.1,8.5c0.2,0.2,0.3,0.4,0.3,0.4c3.5-1.1,6.8-2.2,10.1-3.3
			c0.1-1,0.3-2.1,0.3-3.2c0.2-2.6,0.8-5,1.9-7.4c1-2.4,2.5-4.4,4.6-5.8c1.9-1.3,4-1.6,6.1-0.5c2.3,1.2,3.5,3.1,3.6,5.7
			c0.1,3.9-1.8,6.8-5.1,8.8c-1.2,0.8-2.6,1.3-3.9,1.9c-0.4,0.2-0.8,0.3-1.3,0.5c0,1.2-0.1,2.3,0,3.4c0.2,4,1,7.9,2.5,11.6
			c0.4,1,0.9,1.9,1.5,2.7c0.9,1.3,2.2,1.8,3.8,1.4c1.8-0.4,3.2-1.5,4.4-2.7c2.1-2,3.7-4.4,5.2-6.9c1.8-2.8,3.4-5.7,5.2-8.5
			c0.4-0.6,0.5-1.3,0.5-2c-0.1-3.1,0.3-6,1.6-8.9c0.8-1.9,1.9-3.6,3.4-5c1.1-1,2.4-1.8,4-2.1c1.7-0.3,3.3,0.1,4.7,0.9
			c1.7,1,3,2.4,3.7,4.3c0.8,1.9,1.4,3.8,1,5.9c-0.1,0.4-0.2,0.8-0.4,1.1c-0.1,0.2-0.5,0.4-0.6,0.4c-0.3-0.1-0.5-0.3-0.7-0.6
			c-0.1-0.3-0.1-0.7-0.2-1.1c-0.1-1.5-0.6-3-1.3-4.3c-0.5-1.1-1.4-1.9-2.5-2.5c-1.4-0.8-2.7-0.5-3.8,0.8c-1.4,1.6-2.2,3.5-2.6,5.6
			c-0.7,3.6-0.8,7.3-0.1,10.9c0.3,1.4,0.7,2.8,1.1,4.2c0.1,0.5,0.4,0.9,0.6,1.3c1,1.7,2.4,2.2,4.2,1.2c1.2-0.6,2.3-1.4,3.3-2.3
			c2.6-2.4,5.1-5,7.6-7.4c0.4-0.4,0.8-0.8,1.2-1.2c0.9-0.8,2.2-0.7,3.1,0c1.1,0.8,1.4,2,1.5,3.3c0.2,2.9,0.3,5.7,0.5,8.6
			c0.2,2.5,0.4,4.9,0.6,7.4c0.1,0.7,0.4,1.5,0.8,2.1c0.6,1.1,1.5,1.4,2.6,0.6c0.9-0.6,1.7-1.4,2.3-2.2c1.9-2.3,3-5.1,3.9-7.9
			c1-3,1.9-6,2.9-9c0.2-0.6,0.5-1.2,0.9-1.7c0.2-0.4,0.7-0.5,1-0.1c0.2,0.2,0.3,0.7,0.3,0.9c-1,3.7-1.9,7.4-3,11
			c-1,3.3-2.4,6.5-4.6,9.2c-0.6,0.8-1.3,1.5-2.1,2.1c-2.4,1.8-5.3,1.6-7.4-0.6c-1.7-1.8-2.8-3.9-3.5-6.2c-0.8-2.5-1-5.2-0.9-7.8
			c0.1-1.8,0.2-3.5,0.3-5.3c0-0.2,0-0.4,0-0.8c-0.5,0.4-1,0.7-1.3,1c-1.4,1.3-2.8,2.7-4.2,4.1c-1.6,1.6-3.2,3.1-5.2,4.3
			c-2.9,1.7-5.9,1.3-8.1-1.2c-2-2.1-3.3-4.6-3.9-7.4c-0.1-0.5-0.3-0.9-0.5-1.5c-0.9,1.5-1.7,2.8-2.5,4.1c-1.9,2.9-3.7,5.9-5.6,8.8
			c-1.3,1.9-3.1,3.5-5.1,4.6c-1.2,0.7-2.5,1.1-3.9,1.2c-1.5,0.1-2.8-0.5-4-1.3c-2.5-1.8-4.4-4.1-5.7-7c-1.5-3.4-2.5-6.9-2.8-10.6
			c0-0.3-0.1-0.5-0.2-0.9c-3,0.9-6,1.6-8.9,3c0.2,0.4,0.4,0.8,0.6,1.2c1.1,2,2.1,4.1,2.5,6.3c0.6,3.1,0.3,6-1.7,8.7
			c-1.8,2.4-4.5,3.5-7,2.8c-2.6-0.7-4.7-3-5.1-5.9c-0.5-3.5,0.7-6.5,2.8-9.3C184.1,355.1,184.7,354.5,185.3,353.7z M186.4,355.4
			c-0.6,0.8-1.2,1.4-1.6,2c-1.4,1.9-2.3,4.1-2.1,6.5c0.1,1.8,0.8,3.3,2.5,4.3c1.3,0.7,2.5,0.4,3.3-0.8c0.8-1.2,1.2-2.6,1-4.1
			C189.1,360.4,187.9,358,186.4,355.4z M206.7,345c0.2,0,0.4,0,0.5,0c2.4-0.9,4.5-2.2,6.2-4.1c1.1-1.2,1.8-2.6,1.8-4.3
			c0-1.2-0.3-2.3-1.2-3.2c-1.1-1-2.4-1-3.4,0.1c-0.4,0.5-0.8,1.1-1.2,1.7c-1.3,2.2-1.9,4.6-2.5,7.1
			C206.8,343.2,206.8,344.1,206.7,345z"/>
		<path d="M207.7,252.2c-1.7-0.4-3.2-1.1-4.5-2.2c-0.9-0.8-1.7-1.6-1.9-2.8c-0.1-0.7-0.1-1.4,0-2c0.4-1.7,2-2.4,3.6-1.8
			c1,0.4,1.8,1,2.5,1.9c0.9,1.2,1.5,2.5,1.9,4c0.1,0.5,0.2,0.9,0.4,1.4c1.6,0.1,3.1,0.1,4.6-0.3c0.1-0.9,0.2-1.7,0.3-2.6
			c0.3-2.8,0.7-5.5,1.5-8.2c0.6-2.3,1.5-4.4,2.9-6.3c0.7-0.9,1.4-1.6,2.4-2.1c1.9-1,4-0.3,5,1.6c1.2,2.4,1.3,4.9,0.4,7.5
			c-1.1,3.1-3,5.8-5.4,8c-0.6,0.6-1,1.1-1,1.9c-0.3,5.1-0.3,10.1,0.4,15.2c0.2,1.2,0.3,2.4,0.5,3.7c0.5,0,0.9,0,1.3,0
			c1.6,0.1,3.1,0.1,4.7,0.3c3.7,0.6,6.3,3.3,6.8,7.1c0.4,3,0,5.8-2.1,8.1c-0.5,0.6-1,1.1-1.7,1.5c-1.7,1.1-3.4,1.1-5.2,0.2
			c-2.5-1.2-4.2-3.1-5.7-5.4c-1.5-2.4-2.5-5-3.3-7.7c-0.1-0.3-0.2-0.7-0.4-1.2c-0.8,0.2-1.6,0.3-2.4,0.5c-3.7,0.8-7.3,1.6-11,2.3
			c-4.1,0.7-8.2,1.2-12.4,0.9c-4.2-0.3-8.2-1.3-11.7-3.7c-4.3-2.9-6.8-6.9-7.1-12.2c0-0.4,0-0.9,0-1.3c0.5-3.2,1.4-6.2,2.7-9.2
			c0.2-0.4,0.4-0.7,0.7-0.9c0.4-0.3,0.9-0.2,1.2,0.1c0.3,0.4,0,0.6-0.2,0.9c-0.3,0.3-0.6,0.7-0.8,1.2c-0.5,1.7-1.1,3.4-1.5,5.1
			c-1,4.1,0.1,7.7,2.8,11c2.6,3.1,6.1,4.8,9.9,5.7c3.7,0.9,7.4,0.9,11.2,0.6c6-0.4,11.8-1.8,17.7-3c0.2,0,0.4-0.1,0.6-0.2
			c-1.3-5.8-1.3-11.7-1.2-17.6c-1.5,0.2-2.8,0.3-4.2,0.5c0,0.3-0.1,0.5-0.1,0.8c-0.4,4.9-2.2,9.2-5.7,12.6
			c-2.8,2.8-6.2,3.8-10.1,2.9c-2.5-0.6-4.3-2.2-5.8-4.2c-2.7-3.7-3.8-8-3.6-12.5c0.2-4.7,1.9-8.9,5-12.4c1.7-2,3.8-3.4,6.5-3.7
			c2.4-0.3,4.4,0.6,6,2.4c0.2,0.3,0.4,0.6,0.6,0.9c0.2,0.4,0.2,0.8-0.1,1.1c-0.3,0.3-0.7,0.2-1.1,0c-0.7-0.3-1.4-0.6-2.1-0.8
			c-1.6-0.4-2.9,0.2-4.1,1.3c-1.6,1.5-2.8,3.2-3.5,5.2c-1.8,5.3-2,10.5,0.3,15.7c0.5,1,1.1,2.1,1.8,2.9c1.6,1.9,3.7,2.4,6.1,1.7
			c2.6-0.8,4.3-2.7,5.6-4.9c1.5-2.6,2.2-5.4,2.2-8.4C207.8,252.8,207.8,252.5,207.7,252.2z M221.8,270.9c0,0.2-0.1,0.3-0.1,0.3
			c0.5,3.2,1.3,6.3,2.6,9.3c0.5,1.1,1.2,2.1,2.2,2.8c1.2,1,2.3,0.9,3.4-0.1c0.3-0.3,0.6-0.6,0.8-1c1.1-1.6,1.5-3.4,1.3-5.2
			c-0.3-2.8-1.5-4.9-4.3-5.8C225.9,270.5,223.8,270.7,221.8,270.9z M224.1,233.4c-0.5,0.6-0.8,1-1,1.4c-0.3,0.6-0.5,1.3-0.6,1.9
			c-0.5,2.5-1,5-1.4,7.5c-0.1,0.7-0.2,1.5-0.3,2.2c2.2-2,3.8-4.3,4.5-7.1c0.4-1.5,0.3-3-0.3-4.5C224.8,234.4,224.5,234,224.1,233.4z
			 M203.9,245.2c-0.5,0.6-0.6,1.2-0.3,1.7c0.8,1.6,2.1,2.5,3.7,3C206.8,247.9,206,246.2,203.9,245.2z"/>
		<g>
			<path d="M200.5,204.1c0.2-0.6,0.5-1.2,0.7-1.9c1.7-4.2,4-7.9,7.2-11.1c0.9-0.9,2-1.8,3.1-2.4c1.9-1.1,3.8-0.8,5.6,0.5
				c1.8,1.4,2.7,3.3,3.5,5.4c1.1,2.9,1.5,5.9,1.9,8.9c0.4,3.3,0.6,6.7,0.3,10.1c-0.4,5-1.8,9.6-5.1,13.5c-1.8,2.2-4.1,3.7-6.9,4.3
				c-4.4,1-8.5-1.1-10.3-5.2c-0.1-0.3-0.3-0.6-0.6-0.8c-0.1,0.8-0.1,1.5-0.2,2.3c-0.1,0.5-0.2,1.1-0.4,1.6c-0.5,1.1-1.9,1.2-2.5,0.1
				c-0.3-0.5-0.4-1.1-0.5-1.7c-0.4-4.5-0.8-9.1-1-13.6c-0.2-4.1-0.3-8.2-0.3-12.3c0-3.4-0.1-6.7,0.6-10c0.1-0.7,0.3-1.4,0.6-2.1
				c0.3-0.8,0.9-1.2,1.8-1.2c0.9,0,1.5,0.5,1.8,1.4c0.3,1.1,0.5,2.2,0.6,3.3c0.1,3.4,0.1,6.8,0.1,10.2c0,0.2,0,0.5,0,0.7
				C200.3,204,200.4,204,200.5,204.1z M217.4,210.1c-0.1-3.9-0.4-7.7-1.2-11.4c-0.4-2.1-0.8-4.2-1.8-6.1c-1-1.8-1.7-2-3.5-1
				c-0.4,0.2-0.8,0.5-1.2,0.8c-0.8,0.7-1.6,1.4-2.2,2.2c-2.8,3.2-4.7,6.8-6.1,10.8c-0.7,2-1.3,4-1.2,6.2c0,2.6-0.1,5.3-0.2,7.9
				c0,1,0.1,1.9,0.4,2.8c0.8,2.1,1.7,4,3.5,5.5c1.9,1.7,5.3,2.5,7.9,0.3c0.9-0.7,1.7-1.6,2.3-2.6c1.6-2.4,2.4-5.1,2.8-7.8
				C217.2,215.2,217.3,212.7,217.4,210.1z"/>
			<path d="M241.1,209.2c-0.1,4-0.4,8.2-1,12.4c-0.3,1.6-0.8,3.3-1.2,4.9c-0.2,0.6-0.6,1.2-0.9,1.7c-1.5,2-4,2.5-6.1,1.1
				c-1.6-1-2.5-2.6-3.4-4.2c-1.2-2.3-1.7-4.8-2.2-7.3c-0.7-3.5-0.9-7-0.7-10.5c0.3-4.1,0.9-8.2,2.3-12.1c0.6-1.5,1.3-2.8,2.4-4
				c0.7-0.7,1.5-1.3,2.5-1.5c1.1-0.2,2,0.1,2.7,1.1c0.2,0.3,0.4,0.5,0.6,0.7c1.6,1.4,2.6,3.3,3.3,5.2
				C240.7,200.7,241.1,204.8,241.1,209.2z M234.6,193c-0.8,0.8-1.2,1.7-1.5,2.6c-1.3,3.8-2,7.7-2.2,11.7c-0.3,5.2,0.1,10.3,1.2,15.4
				c0.3,1.3,0.7,2.5,1.5,3.6c0.6,0.8,1.3,0.9,1.9,0.2c0.3-0.3,0.6-0.7,0.8-1c0.4-1.1,0.8-2.2,1-3.3c0.3-1.3,0.3-2.6,0.6-3.9
				c0.9-5.9,1-11.8,0-17.8C237.4,197.8,236.3,195.3,234.6,193z"/>
			<path d="M255.6,225c-0.2-2.4-1-4.5-2-6.5c-0.9-1.8-2-3.6-3-5.3c-1.5-2.6-3.1-5.1-4.5-7.6c-1.5-2.7-2.6-5.6-2.7-8.7
				c-0.2-2.8,0.6-5.3,2.6-7.3c2.4-2.4,5.6-2.5,8-0.4c3.3,2.8,4.3,6.6,4.2,10.8c0,0.4-0.1,0.8-0.3,1.2c-0.2,0.3-0.5,0.6-0.9,0.7
				c-0.5,0.1-0.8-0.3-0.9-0.7c-0.1-0.4-0.2-0.9-0.3-1.3c-0.4-1.6-0.7-3.3-1.4-4.8c-0.4-1-1.1-1.9-1.9-2.6c-1.5-1.5-3.4-1-4.1,1.1
				c-0.6,1.8-0.5,3.6,0.2,5.4c1.1,2.7,2.5,5.3,4.1,7.7c2.1,3.3,4.2,6.7,5.9,10.3c0.9,1.8,1.7,3.7,1.8,5.8c0.1,3-0.6,5.7-2.8,7.9
				c-1.9,1.9-5.4,2.3-7.6,0.7c-1.1-0.8-2.1-1.7-3-2.7c-0.4-0.4-0.6-1-0.8-1.6c-0.2-0.4-0.1-0.9,0.4-1c0.3-0.1,0.8,0.1,0.9,0.3
				c0.7,1.1,1.5,1.9,2.6,2.4c0.7,0.3,1.4,0.6,2.1,0.7c1.2,0.2,2.1-0.3,2.5-1.4C255.3,227,255.4,226,255.6,225z"/>
			<path d="M271,192.2c0.2,1.3,0.4,2.5,0.5,3.7c0.1,5.2,0.2,10.5,0.3,15.7c0,0.3,0,0.5,0,0.9c1.5-0.1,2.9-0.2,4.4-0.3
				c0.6-0.1,1.3-0.1,1.9-0.2c0.4,0,0.7,0,0.9,0.5c0.1,0.5-0.1,0.8-0.5,0.9c-0.3,0.1-0.7,0.2-1,0.3c-1.3,0.2-2.7,0.4-4,0.6
				c-0.5,0.1-0.9,0.1-1.5,0.2c-0.1,4.5-0.2,9-0.4,13.6c0.4,0,0.7,0,1,0c2.1-0.3,4.2-0.6,6.3-0.9c0.2,0,0.4-0.2,0.6-0.1
				c0.3,0.1,0.6,0.3,0.7,0.5c0.1,0.2-0.1,0.5-0.3,0.7c-0.2,0.2-0.5,0.3-0.7,0.4c-2.2,0.6-4.5,1.2-6.8,1.6c-2,0.4-3.2-0.4-3.7-2.4
				c-0.9-3.3-1.4-6.7-1.6-10.1c-0.3-4.3-0.5-8.6-0.5-12.9c0-3.6,0.2-7.1,0.3-10.7c0-0.7,0.2-1.3,0.4-2c0.2-0.7,0.8-1.1,1.5-1.5
				c1.8-0.8,3.6-1,5.5-1c1.8-0.1,3.6-0.1,5.4-0.2c0.3,0,0.7,0.2,0.7,0.4c0,0.3-0.1,0.7-0.4,0.9c-0.4,0.2-0.9,0.3-1.4,0.4
				c-2.3,0.3-4.6,0.6-6.9,1C271.4,192.1,271.3,192.1,271,192.2z"/>
		</g>
		<g>
			<path d="M239,69.7c-0.4,0.9-0.6,1.5-0.9,2.1c-1.3,2.7-2.6,5.5-4,8.2c-0.7,1.4-1.7,2.7-2.8,3.9c-2.6,3-5.4,2.9-8-0.2
				c-1.5-1.8-2.3-3.9-2.8-6.2c-0.8-3.7-1.1-7.5-0.7-11.3c0.1-1.3,0.3-2.5,0.5-3.8c0.1-0.7,0.3-1.3,0.6-1.9c0.4-0.8,1.1-1.2,1.9-1.1
				c0.8,0.1,1.5,0.6,1.6,1.4c0.2,1.5,0.4,3.1,0.4,4.6c0,5.1,0.2,10.2,1,15.3c0.1,0.7,0.3,1.5,0.5,2.2c0.5,1.5,1.8,2,3.1,1
				c0.8-0.6,1.6-1.3,2.1-2.1c1-1.5,2-3.1,2.8-4.7c2.1-4.4,3.8-9,5-13.7c0.1-0.3,0.2-0.6,0.3-0.9c0.7-1.2,2.6-1.2,3.3,0.3
				c0.5,1.1,0.9,2.2,1,3.4c0.8,5.7,0.9,11.4,0.7,17.1c-0.1,3.3-0.2,6.7-0.9,10c-0.5,2.6-1.4,5.1-3.1,7.2c-1.5,1.8-3.3,3.2-5.5,3.9
				c-2.8,1-5.9,0-7.7-2.3c-1-1.4-2-2.8-2.9-4.2c-0.3-0.5-0.6-1.1-0.7-1.6c-0.1-0.3,0.1-0.8,0.3-0.9c0.2-0.1,0.7,0,0.9,0.2
				c0.3,0.2,0.4,0.6,0.7,0.8c1,1.3,2,2.7,3.2,3.9c0.6,0.6,1.4,1.2,2.3,1.5c1.6,0.6,3,0,4.2-1c1.7-1.5,2.6-3.4,3-5.6
				c0.7-3.6,0.8-7.3,0.9-11c0-2.8,0.1-5.7,0.1-8.5c0-1.7-0.1-3.4-0.1-5.2C239.2,70.4,239.1,70.2,239,69.7z"/>
			<path d="M165.9,92.2c-5.2,0.3-10.3,0.6-15.4,0.8c-0.1,1.6-0.2,3-0.3,4.5c0,0.5-0.1,1-0.2,1.5c-0.1,0.6-0.5,0.9-1.1,0.9
				c-0.6,0-1-0.3-1.2-0.8c-0.1-0.3-0.2-0.7-0.2-1c-0.3-2.6-0.1-5.1,0.2-7.7c1.2-8.9,4-17.3,8.2-25.3c0.5-0.9,1-1.7,1.6-2.5
				c1.6-2,3.8-2.1,5.7-0.4c1.1,1,1.7,2.2,2.3,3.5c1.1,2.3,1.7,4.7,2.3,7.2c1.3,5.9,2.1,12,2.5,18c0.2,3.1,0.4,6.2,0.6,9.3
				c0,0.5,0,1,0,1.6c-0.1,0.7-0.5,1.1-1.1,1.2c-0.6,0.1-1.2-0.2-1.4-0.9c-0.2-0.6-0.4-1.3-0.5-2c-0.6-2.5-1.1-4.9-1.6-7.4
				C166.1,92.7,166,92.5,165.9,92.2z M159.6,64.6c-0.5,0.5-1,0.8-1.3,1.3c-0.7,1.1-1.4,2.2-1.9,3.4c-2.9,6.7-4.7,13.6-5.6,20.9
				c0,0.2,0,0.4,0.1,0.6c4.9-0.2,9.8-0.4,14.7-0.7c0-0.2,0-0.3,0-0.4c-1.3-7-2.3-14.1-4.2-21C160.9,67.4,160.5,66,159.6,64.6z"/>
			<path d="M264,76.7c0.1,4.5-0.3,8.4-0.8,12.2c-0.3,2.4-0.8,4.8-1.3,7.2c-0.3,1.6-1,3-2.1,4.3c-1.4,1.7-3.3,2.1-5.3,1
				c-1.7-0.9-2.8-2.5-3.7-4.2c-1.9-3.7-2.7-7.7-2.9-11.8c-0.2-4.1,0-8.1,0.7-12.2c0.5-2.7,1.3-5.4,2.7-7.8c1.1-1.8,2.5-3.1,4.7-3.2
				c0.2,0,0.3-0.1,0.5,0c2.2,0.6,4.2,1.6,5.3,3.8c1.2,2.3,1.6,4.8,1.9,7.3C263.9,74.6,263.9,76,264,76.7z M257.7,64.6
				c-1.4,0.7-1.9,1.9-2.4,3.1c-1.2,3-1.8,6.1-2,9.2c-0.2,3.1-0.2,6.3-0.2,9.5c0,2.9,0.4,5.8,1.2,8.6c0.4,1.3,0.9,2.5,1.8,3.5
				c0.8,0.9,1.3,0.8,2-0.1c0.2-0.2,0.3-0.5,0.4-0.7c0.5-1.5,1.2-3,1.5-4.5c0.4-2.1,0.7-4.2,0.9-6.3c0.5-4.5,0.8-9,0.3-13.5
				c-0.2-1.8-0.6-3.6-1-5.4C259.9,66.5,259.3,65.2,257.7,64.6z"/>
			<path d="M272.9,73.1c-0.2,6.8,0.5,14,1.2,21.2c0.2,1.4,0.5,2.8,1,4.2c0.5,1.3,1.4,1.4,2.1,0.2c0.6-1,1.1-2.2,1.4-3.3
				c0.7-3.2,1.4-6.5,1.9-9.8c0.7-4.7,1.3-9.5,2-14.2c0.3-2.3,0.7-4.7,1.1-7c0.1-0.3,0.2-0.7,0.4-1c0.1-0.1,0.4-0.2,0.6-0.1
				c0.1,0,0.2,0.3,0.3,0.5c0,0.1,0,0.3,0,0.5c-0.6,4.5-1.1,9-1.7,13.6c-0.7,5.2-1.2,10.4-2.4,15.5c-0.4,1.7-0.9,3.4-1.5,5
				c-0.3,0.7-0.7,1.4-1.2,2c-1.1,1.3-2.7,1.5-4.2,0.6c-1.5-0.9-2.4-2.2-3.1-3.7c-1.5-3-2.2-6.2-2.6-9.6c-0.7-5.6-0.6-11.2-0.4-16.9
				c0.1-2,0.2-4.1,0.9-6c0.2-0.5,0.5-1,0.8-1.5c0.4-0.6,1.1-0.8,1.8-0.7c0.7,0.1,1.2,0.5,1.4,1.2c0.2,0.8,0.3,1.7,0.4,2.6
				C272.9,68.6,272.9,70.6,272.9,73.1z"/>
			<path d="M197.6,86.7c0.1,3.5-0.1,6.9-0.4,10.4c-0.2,2.4,0,2.7,2.4,2.6c2.7-0.1,5.3-0.4,8-0.6c0.4,0,0.9,0,1.3,0.1
				c0.2,0.1,0.4,0.4,0.6,0.7c-0.2,0.2-0.4,0.5-0.7,0.5c-2.7,0.5-5.3,1-8,1.4c-0.9,0.1-1.9,0.2-2.9,0.1c-1.6-0.2-2.7-1-3.1-2.7
				c-0.9-3.2-1.5-6.5-1.8-9.9c-0.5-6.3-1-12.6-1.4-18.9c-0.1-1.5,0-3,0-4.6c0-0.9,0.2-1.8,0.7-2.6c0.3-0.6,0.8-0.9,1.4-0.9
				c0.7,0,1.3,0.3,1.5,1c0.3,0.7,0.5,1.4,0.6,2.1c1.1,6.7,1.7,13.5,1.8,20.3C197.6,86,197.6,86.3,197.6,86.7z"/>
			<path d="M180,92.8c0,1.8,0,3.7,0,5.5c0,1,0.2,1.3,1.2,1.4c0.6,0,1.1,0,1.7,0c2.2-0.1,4.3-0.3,6.5-0.4c0.4,0,0.8,0,0.8,0.4
				c0,0.3-0.3,0.6-0.5,0.8c-0.1,0.1-0.4,0.1-0.7,0.2c-2,0.2-4,0.5-6,0.6c-1.1,0.1-2.3,0-3.5-0.2c-1.2-0.2-1.9-1.1-2.4-2.2
				c-0.4-1.1-0.8-2.2-1-3.3c-0.6-3.8-1.1-7.7-1.5-11.5c-0.4-3.8-0.7-7.7-0.9-11.6c-0.1-2.2,0-4.4,0.1-6.6c0-0.7,0.3-1.3,0.5-2
				c0.2-0.6,0.7-1,1.4-1c0.7,0,1.1,0.4,1.3,1c0.3,1.3,0.7,2.5,0.9,3.8c1,6.6,1.5,13.3,1.8,20c0.1,1.6,0,3.3,0,4.9
				C179.9,92.8,180,92.8,180,92.8z"/>
		</g>
		<g>
			<path d="M235.7,300.3c0.1,1.8,0.3,3.6,0.4,5.4c0.2,3.8,0.4,7.5,0.4,11.3c0,3-0.1,5.9-0.2,8.9c0,0.4,0,0.7-0.1,1.1
				c-0.2,0.6-0.7,1-1.3,1.1c-0.6,0-1.1-0.3-1.3-0.8c-0.2-0.4-0.3-0.8-0.3-1.1c-1.1-5.8-1.7-11.6-1.9-17.5c-0.1-2.6-0.3-5.3-0.4-7.9
				c0-1.9,0.1-3.8,0.1-5.7c0-0.6,0.2-1.1,0.3-1.6c0.4-1.4,1.7-1.8,2.8-0.8c1.4,1.3,2.8,2.7,4.1,4.2c1.6,1.8,3,3.7,4.5,5.6
				c0.4,0.5,0.8,1,1.3,1.6c0.5-0.4,0.9-0.7,1.3-1.1c2.8-3,5.6-6.1,8.3-9.1c1.7-1.9,3.4-3.9,4.7-6.2c0.8-1.3,2.4-1.3,3.1,0
				c0.4,0.6,0.6,1.3,0.6,2c0.2,2.8,0.3,5.6,0.3,8.4c0,5.8,0,11.7-0.1,17.5c0,1.2-0.1,2.5-0.2,3.7c-0.1,2-0.2,3.9-0.3,5.9
				c0,0.8-0.3,1.5-1,1.9c-1.1,0.7-2.1,0.4-2.6-0.8c-0.3-0.8-0.6-1.7-0.7-2.5c-0.2-1.3-0.4-2.5-0.5-3.8c-0.2-2.5-0.4-5.1-0.5-7.6
				c-0.1-3-0.2-5.9-0.1-8.9c0.1-3.5,0.4-6.9,0.7-10.4c0-0.1,0-0.3,0-0.6c-0.4,0.5-0.8,0.8-1.1,1.2c-2.8,3.4-5.5,6.8-8.3,10.2
				c-0.6,0.7-1.2,1.5-1.8,2.2c-1.3,1.7-3.1,1.7-4.6,0.5c-1.1-0.8-2-1.9-2.9-2.9c-0.9-1-1.6-2-2.4-3.1
				C235.9,300.2,235.8,300.3,235.7,300.3z"/>
			<path d="M301.7,317.7c0-1.7,0-3.4,0-5c0.2-6.6,0.5-13.2,1.3-19.7c0.2-1.7,0.6-3.5,0.9-5.2c0.1-0.3,0.2-0.6,0.3-0.9
				c0.2-0.4,0.5-0.7,1-0.6c0.5,0.1,0.6,0.6,0.6,1.1c-0.1,1.2-0.1,2.4-0.2,3.5c-0.6,5.3-0.8,10.7-1,16.1c-0.1,4.3-0.2,8.5-0.3,12.8
				c0,1-0.1,2-0.3,3c-0.5,2.2-2.3,2.2-3.5,1.1c-0.5-0.5-0.9-1.1-1.4-1.7c-2.4-3.2-4.5-6.7-6.5-10.1c-2.9-5-5.7-10-8.5-15
				c-0.1-0.1-0.2-0.2-0.4-0.4c0,0.5,0,0.8,0,1.2c0.3,7.1,0.6,14.3,0.4,21.4c-0.1,2.2-0.2,4.4-0.3,6.7c0,0.3,0,0.5-0.1,0.8
				c-0.2,0.7-0.6,1.1-1.2,1.2c-0.6,0.1-1.2-0.3-1.4-1c-0.2-0.6-0.3-1.2-0.4-1.8c-1.2-6-1.6-12-1.8-18.1c-0.1-4.9-0.2-9.8-0.2-14.7
				c0-0.9,0-1.7,0.1-2.6c0.1-0.6,0.2-1.2,0.5-1.7c0.5-1,1.4-1.3,2.4-0.8c1.2,0.6,2.1,1.5,2.8,2.7c2.5,4,5,8.1,7.5,12.2
				c1.8,2.9,3.5,5.8,5.2,8.7c1.1,1.9,2.2,3.9,3.4,5.8c0.3,0.4,0.5,0.9,0.8,1.3C301.4,317.8,301.5,317.8,301.7,317.7z"/>
			<path d="M220.3,317.6c-3.9,0.3-7.8,0.6-11.8,0.9c-0.2,1.3-0.3,2.5-0.5,3.8c-0.1,0.8-0.3,1.7-0.5,2.5c-0.2,0.8-0.8,1.2-1.4,1.1
				c-0.6-0.1-1.1-0.6-1.2-1.4c-0.1-0.5-0.1-1,0-1.5c0.4-3.7,0.8-7.4,1.3-11c0.9-6.1,2.2-12,4-17.9c0.6-1.9,1.2-3.8,1.9-5.7
				c1-2.5,3.1-2.7,4.7-0.6c1.3,1.7,2,3.7,2.7,5.6c2.8,7.6,4.5,15.6,6,23.6c0.4,2,0.4,4,0.5,6.1c0.1,0.8,0.2,1.6,0.2,2.4
				c0,0.4,0,0.8,0,1.2c-0.1,0.7-0.7,1.2-1.3,1.3c-0.6,0.1-1.2-0.2-1.4-0.9c-0.2-0.6-0.3-1.2-0.5-1.7
				C222,322.7,221.2,320.2,220.3,317.6z M219.7,315.6c-2.1-8-4.1-15.8-6.1-23.8c-1.6,3.3-5,21.1-4.7,23.8
				C212.5,315.6,216,315.6,219.7,315.6z"/>
			<path d="M161.5,319.5c0.4-1.7,0.7-3.1,1-4.6c1.7-7.8,3.5-15.5,5.2-23.3c0.2-0.9,0.4-1.8,0.6-2.7c0-0.2,0.1-0.4,0.2-0.6
				c0.2-0.2,0.5-0.5,0.7-0.5c0.4,0,0.5,0.4,0.5,0.8c0,0.2-0.1,0.5-0.2,0.7c-2,9.3-3.9,18.7-5.9,28c-0.4,1.7-0.7,3.4-1.1,5
				c0,0.1,0,0.2-0.1,0.4c-0.2,0.6-0.4,1.4-1.2,1.5c-0.8,0.1-1.3-0.4-1.7-1c-0.4-0.5-0.7-1-1-1.5c-1.8-3.6-3.5-7.2-4.9-10.9
				c-1.5-4-3-8-4.3-12.1c-1-3.1-1.8-6.2-2.7-9.3c-0.1-0.5-0.2-1-0.2-1.4c0.1-1.6,1.6-2.3,3-1.5c0.9,0.6,1.5,1.5,1.9,2.4
				c1,2.1,2,4.2,2.7,6.4c1.5,4.5,3,9,4.4,13.6c1,3.3,1.8,6.6,2.7,9.9C161.2,319.1,161.3,319.2,161.5,319.5z"/>
			<path d="M191.7,289.3c-0.5,0-1,0-1.5,0c-1,0-1.9,0.1-2.9,0.2c-0.4,0-0.7,0-1.1-0.1c-0.5-0.1-1-0.4-1-1c0-0.6,0.4-0.9,0.9-1.1
				c0.7-0.2,1.5-0.4,2.2-0.4c1.1-0.1,2.2-0.2,3.3-0.3c0,0,0.1,0,0.1,0c1.8-0.6,3.6,0,5.4,0c1.8,0,3.6,0,5.4,0c0.6,0,1,0.2,1,0.8
				c0.1,0.6-0.3,0.9-0.8,1.1c-0.7,0.1-1.3,0.2-2,0.3c-1.7,0.1-3.4,0.2-5.2,0.3c0.1,0.7,0.2,1.2,0.3,1.7c0.4,3.3,0.8,6.6,1.1,9.9
				c0.3,3.9,0.5,7.9,0.6,11.8c0.1,4,0.1,7.9,0.2,11.9c0,0.3,0,0.6-0.1,1c-0.1,0.7-0.6,1.1-1.2,1.1c-0.6,0-1.1-0.3-1.3-0.9
				c-0.1-0.4-0.2-0.8-0.3-1.2c-0.6-3.7-1.2-7.5-1.6-11.3c-0.4-3.4-0.6-6.8-0.9-10.3c-0.3-4.3-0.5-8.6-0.7-12.9
				C191.7,289.7,191.7,289.5,191.7,289.3z"/>
			<path d="M267.9,304.2c0-3.6,0-7.3,0-10.9c0-1.4,0.1-2.8,0.3-4.2c0-0.5,0.2-1,0.4-1.6c0.2-0.7,0.7-1.2,1.4-1.3
				c0.7,0,1.3,0.4,1.5,1.1c0.3,1,0.6,2,0.8,3.1c0.8,7.8,1,15.7,0.9,23.5c0,3.4-0.2,6.7-0.4,10.1c0,0.9-0.2,1.8-0.5,2.6
				c-0.4,1.3-1.4,1.5-2.2,0.4c-0.5-0.7-0.8-1.7-0.9-2.6c-0.8-5.3-1.1-10.6-1.2-15.9C267.9,307.1,267.9,305.7,267.9,304.2
				C267.9,304.2,267.9,304.2,267.9,304.2z"/>
			<path d="M182.8,316.7c0,2.4,0,4.9,0,7.3c0,0.8-0.4,1.3-1,1.4c-0.6,0.1-1-0.3-1.3-1c-0.1-0.2-0.1-0.3-0.1-0.5
				c-1.4-7-2.5-14.1-2.9-21.2c-0.3-4.1-0.5-8.1-0.7-12.2c0-0.9,0.1-1.8,0.3-2.6c0.2-0.9,0.8-1.5,1.5-1.6c0.7-0.1,1.5,0.4,1.7,1.4
				c0.4,1.6,0.8,3.2,1,4.8c0.9,7.4,1.3,14.8,1.6,22.2c0,0.7,0,1.4,0,2C182.9,316.7,182.8,316.7,182.8,316.7z"/>
		</g>
		<g>
			<path d="M230.4,176.7c-3.9,0.2-7.7,0.4-11.7,0.7c-0.1,0.5-0.2,1.1-0.3,1.7c-0.2,0.9-0.3,1.9-0.5,2.8c-0.2,0.7-0.6,1.1-1.1,1
				c-0.5,0-1-0.4-1.1-1.1c-0.1-0.9-0.1-1.8-0.1-2.7c0.3-3.9,1-7.7,1.7-11.5c0.9-5,2.3-9.9,4.4-14.5c0.7-1.6,1.4-3.2,2.6-4.6
				c1.5-1.7,3.6-1.7,5.1,0c1.2,1.4,1.7,3.1,2.2,4.7c1.2,3.8,1.7,7.8,2,11.8c0.3,3.7,0.6,7.4,0.8,11.1c0.2,3,0.2,5.9,0.3,8.9
				c0,0.3,0,0.6,0,0.8c-0.1,0.7-0.5,1.1-1.1,1.2c-0.6,0.1-1.2-0.2-1.4-0.9c-0.2-0.6-0.3-1.2-0.4-1.8c-0.5-2.4-0.9-4.8-1.4-7.2
				C230.5,177,230.4,176.9,230.4,176.7z M226.3,151.1c-0.1,0-0.2-0.1-0.3-0.1c-0.4,0.6-0.9,1.2-1.3,1.8c-1.3,2.2-2.2,4.6-2.9,7.1
				c-1.4,4.8-2.2,9.7-2.8,14.7c0,0.2,0,0.5,0,0.8c3.7-0.1,7.4-0.1,11.1-0.5C228.8,166.8,228.6,158.8,226.3,151.1z"/>
			<path d="M197.9,157.4c0.1-2.5-0.6-4.8-2.2-6.8c-0.6-0.7-1.2-1.4-2.1-1.7c-1.3-0.4-2.3,0-2.9,1.2c-0.6,1.2-0.9,2.5-0.7,3.8
				c0.2,1.6,0.6,3.2,1.6,4.6c1.7,2.1,3.3,4.2,5.1,6.2c2.9,3.4,5.3,7.1,6.1,11.6c0.5,3-0.2,5.6-2.6,7.5c-2.6,2.1-6.3,1.9-8.4-0.8
				c-0.8-1.1-1.7-2.1-2.4-3.3c-0.4-0.7-0.5-1.5-0.6-2.3c0-0.2,0.3-0.5,0.5-0.7c0.2,0.2,0.6,0.3,0.6,0.6c0.4,1.9,1.6,3.2,2.9,4.4
				c0.8,0.8,1.7,1.2,2.8,1.2c1.2,0,2-0.6,2.6-1.7c0.4-0.9,0.5-1.9,0.3-2.9c-0.2-1.6-0.9-3-1.5-4.4c-1.2-2.6-2.9-4.9-4.7-7.1
				c-2.1-2.6-4.3-5.2-5.6-8.3c-1.2-2.9-1.2-5.9,0-8.8c2.4-5.5,7.6-4.5,10-1.8c2.4,2.7,3.7,5.9,3.3,9.6c-0.1,0.5-0.2,1.1-0.4,1.6
				c-0.2,0.4-0.5,0.7-1,0.6c-0.5-0.1-0.6-0.5-0.7-0.9C197.9,158.4,197.9,157.9,197.9,157.4z"/>
			<path d="M180.5,168.5c-0.1,4.9-0.1,9.5-0.2,14.2c0,0.5-0.1,1.1-0.2,1.6c-0.1,0.6-0.5,1-1.1,1c-0.6,0-1-0.3-1.2-0.9
				c-0.1-0.4-0.2-0.8-0.3-1.2c-0.5-4.1-1.1-8.2-1.4-12.4c-0.4-6.4-0.6-12.8-0.1-19.2c0.1-0.9,0.3-1.7,0.6-2.6c0.2-0.6,0.7-1,1.3-1
				c0.6,0,1,0.4,1.2,1c0.7,1.6,0.9,3.4,1,5.1C180.2,159.1,180.3,163.9,180.5,168.5z"/>
		</g>
		<g>
			<g>
				<path class="st10" d="M248.7,170.1c-2.5,0-4.4-1.7-4.3-4.2c0.1-3.1,1.9-4.4,5-4.7c1.8-0.2,3.9,2.3,3.9,4.5
					C253.2,167.9,251,170,248.7,170.1z"/>
				<path class="st10" d="M263.4,170.1c-2.5,0-4.4-1.7-4.3-4.2c0.1-3.1,1.9-4.4,5-4.7c1.8-0.2,3.9,2.3,3.9,4.5
					C268,167.9,265.8,170,263.4,170.1z"/>
				<path class="st10" d="M278.2,170.1c-2.5,0-4.4-1.7-4.3-4.2c0.1-3.1,1.9-4.4,5-4.7c1.8-0.2,3.9,2.3,3.9,4.5
					C282.7,167.9,280.6,170,278.2,170.1z"/>
			</g>
			<g>
				<path class="st10" d="M146.8,170.1c-2.5,0-4.4-1.7-4.3-4.2c0.1-3.1,1.9-4.4,5-4.7c1.8-0.2,3.9,2.3,3.9,4.5
					C151.3,167.9,149.1,170,146.8,170.1z"/>
				<path class="st10" d="M161.6,170.1c-2.5,0-4.4-1.7-4.3-4.2c0.1-3.1,1.9-4.4,5-4.7c1.8-0.2,3.9,2.3,3.9,4.5
					C166.1,167.9,163.9,170,161.6,170.1z"/>
			</g>
		</g>
	</g>
	<path class="st0" d="M253.4,271.5c-0.2,0.5-0.3,0.9-0.5,1.3c-0.5,1.3-0.9,2.5-1.4,3.8c-0.7,1.7-1.6,3.3-3,4.6c-0.5,0.4-1,0.8-1.6,1
		c-1.6,0.7-3.2,0-4.1-1.5c-0.4-0.7-0.6-1.5-0.7-2.2c-0.4-2.5-0.2-5,0.3-7.4c0.2-1.4,0.6-2.7,0.9-4.1c0.1-0.3,0.1-0.6,0.2-1
		c-0.5-0.2-1-0.3-1.5-0.3c-2.1-0.3-4.2-0.7-6.2-1.2c-1.6-0.4-2.9-1.4-3.8-2.7c-0.7-0.9-0.7-1.9-0.3-3c0.5-1.4,1.6-2.4,2.9-3.1
		c1.6-0.9,3.3-1.4,5-1.9c0.9-0.3,1.8-0.5,2.8-0.7c0.5-0.1,0.5-0.1,0.5-0.7c0-3.3,0.2-6.5,0.8-9.7c0.3-1.8,0.7-3.5,1.4-5.2
		c0.2-0.4,0.4-0.8,0.6-1.2c0.3-0.5,0.7-0.9,1.3-1.2c0.6-0.3,1.1-0.2,1.7,0.2c0.7,0.5,1.2,1.3,1.6,2c1.6,2.8,2.7,5.8,3.6,8.9
		c0.3,1,0.6,1.9,0.9,2.9c0.3-0.1,0.6-0.1,0.8-0.2c2.8-1,5.7-2,8.5-3c1.2-0.4,2.5-0.7,3.7-0.9c1.3-0.3,2.5,0,3.6,0.7
		c1.2,0.9,1.7,2.2,1.3,3.6c-0.4,1.4-1.1,2.6-2,3.8c-0.8,1.1-1.8,2.1-2.8,3c-1.4,1.3-2.8,2.5-4.2,3.7c-0.5,0.4-0.6,0.4-0.3,1.2
		c0.7,1.6,1.3,3.2,1.9,4.8c0.7,1.9,1.3,3.8,1.9,5.8c0.3,1.1,0.5,2.2,0.6,3.4c0.1,0.8,0,1.6-0.1,2.3c-0.2,2.1-2.1,2.8-3.6,2.7
		c-1.1-0.1-2.1-0.6-3-1.2c-2-1.4-3.8-2.9-5.4-4.8c-0.5-0.6-1.1-1.3-1.6-1.9C253.8,271.9,253.6,271.8,253.4,271.5z M237.8,259
		c-0.1-0.1-0.2-0.4-0.3-0.6c-0.3-0.5-1-0.6-1.5-0.3c-0.6,0.3-0.7,0.9-0.5,1.5c0.2,0.5,0.7,0.7,1.3,0.8
		C237.5,260.5,238,259.9,237.8,259z M250.3,251.1c-0.1-0.3-0.3-0.6-0.4-0.8c-0.2-0.4-0.6-0.4-1-0.3c-0.4,0.1-0.7,0.4-0.7,0.8
		c-0.1,0.6,0.3,1,0.7,1.3c0.3,0.3,0.8,0.3,1.1,0.1C250.3,252,250.4,251.6,250.3,251.1z M258,264.7c-0.6,0.1-0.9,0.6-0.8,1.2
		c0.1,0.6,0.8,1.1,1.4,1c0.5-0.1,0.8-0.6,0.7-1.1C259.1,265,258.5,264.6,258,264.7z M260.4,255.1c-0.2-0.3-0.3-0.5-0.6-0.8
		c-0.5-0.5-1.2-0.4-1.5,0.3c-0.2,0.4-0.1,0.8,0.3,1.2c0.4,0.4,0.9,0.5,1.3,0.3C260.3,256,260.4,255.6,260.4,255.1z M248.5,242.1
		c-0.1-0.5-0.3-0.8-0.8-0.9c-0.4-0.1-0.8,0.1-0.9,0.6c-0.2,0.5-0.2,0.9,0.1,1.4c0.1,0.3,0.4,0.4,0.8,0.4
		C248.2,243.4,248.6,242.8,248.5,242.1z M263.1,273.2c-0.5,0.1-0.9,0.7-0.7,1.2c0.1,0.6,0.7,0.9,1.2,0.8c0.6-0.1,0.9-0.7,0.8-1.2
		C264.3,273.4,263.8,273,263.1,273.2z M260.2,268.5c-0.5,0.1-0.9,0.7-0.8,1.3c0.1,0.6,0.7,1,1.2,0.9c0.5-0.1,0.9-0.7,0.8-1.3
		C261.3,268.8,260.8,268.4,260.2,268.5z M247.6,270.8c-0.6,0.1-0.9,0.6-0.8,1.2c0.1,0.6,0.6,1,1.2,0.9c0.5-0.1,0.8-0.6,0.7-1.3
		C248.6,271.1,248.1,270.7,247.6,270.8z M247.4,277.7c-0.1-0.7-0.7-1.2-1.3-1c-0.5,0.1-0.8,0.6-0.7,1.1c0.1,0.6,0.8,1,1.4,0.9
		C247.1,278.5,247.4,278.1,247.4,277.7z M244.5,258.7c-0.5,0.1-0.8,0.7-0.7,1.2c0.1,0.5,0.6,0.9,1.2,0.7c0.5-0.1,0.9-0.6,0.8-1.1
		C245.6,258.9,245.1,258.6,244.5,258.7z M251.8,256.5c-0.1-0.5-0.6-0.9-1.1-0.8c-0.5,0.1-0.8,0.6-0.7,1.2c0.1,0.6,0.5,0.9,1,0.8
		C251.4,257.6,251.9,257,251.8,256.5z M248,268.2c0.1,0.4,0.6,0.8,1,0.7c0.5-0.1,0.9-0.7,0.9-1.3c-0.1-0.5-0.5-0.8-1-0.7
		C248.2,267,247.9,267.5,248,268.2z M240.3,258.4c-0.5,0.1-0.8,0.6-0.7,1.1c0.1,0.5,0.6,0.8,1.1,0.7c0.5-0.1,0.8-0.5,0.8-1
		C241.3,258.5,240.9,258.2,240.3,258.4z M256.5,261.9c-0.1-0.6-0.6-0.8-1.2-0.7c-0.4,0.1-0.7,0.6-0.6,1.1c0.1,0.5,0.6,0.8,1.1,0.7
		C256.3,262.8,256.6,262.4,256.5,261.9z M262.4,252.3c-0.4,0.1-0.7,0.5-0.7,1c0.1,0.5,0.5,0.8,1,0.7c0.5-0.1,0.8-0.5,0.8-1
		C263.4,252.5,262.9,252.2,262.4,252.3z M248.2,245.8c-0.4,0.1-0.7,0.5-0.7,0.9c0.1,0.5,0.5,0.8,1,0.8c0.5-0.1,0.8-0.5,0.8-1
		C249.2,245.9,248.9,245.7,248.2,245.8z M268,250.5c-0.1-0.5-0.5-0.8-1.1-0.7c-0.4,0.1-0.7,0.5-0.7,1c0.1,0.5,0.5,0.8,1,0.7
		C267.7,251.5,268.1,251,268,250.5z M253.3,259.6c-0.2-0.6-0.4-0.8-1-0.7c-0.5,0.1-0.7,0.4-0.7,0.9c0.1,0.5,0.5,0.8,1,0.7
		C253,260.5,253.3,260.1,253.3,259.6z M247.8,260.2c0.1,0.5,0.6,0.8,1.1,0.7c0.4-0.1,0.7-0.5,0.6-0.9c-0.1-0.5-0.6-0.8-1-0.7
		C247.9,259.3,247.7,259.7,247.8,260.2z M257.1,256.9c-0.1-0.5-0.5-0.8-1-0.7c-0.4,0.1-0.7,0.5-0.6,1c0.1,0.4,0.5,0.7,1,0.7
		C256.8,257.8,257.2,257.4,257.1,256.9z M250.5,264.4c0.5-0.1,0.8-0.5,0.7-0.9c-0.1-0.5-0.5-0.8-1-0.7c-0.4,0.1-0.7,0.5-0.6,1
		C249.7,264.2,250,264.5,250.5,264.4z"/>
	<g>
		<path class="st10" d="M273,343.6c0-1.2,0.2-2.3,0.5-3.4c0.4-1.8,1.1-3.4,2-5c0.6-1,1.4-1.9,2.3-2.5c0.4-0.3,0.8-0.6,1.3-0.8
			c0.2-0.1,0.3-0.2,0.5-0.2c1.2-0.4,2.2,0,3,1c0.6,0.8,0.9,1.7,0.8,2.7c-0.1,0.7-0.3,1.3-0.7,1.8c-0.3,0.5-0.8,0.7-1.3,0.9
			c-0.5,0.2-1,0.3-1.5,0.5c-1.5,0.4-2.6,1.3-3.5,2.5c-0.7,1-1.4,2-1.8,3.1c-0.1,0.2-0.2,0.4-0.3,0.6c-0.2,0.4-0.4,0.4-0.8,0.3
			c-0.3-0.1-0.5-0.4-0.5-0.7C273,344.1,273,343.9,273,343.6z"/>
		<path class="st10" d="M284.4,346.4c0,1.1-0.5,1.9-1.4,2.5c-0.7,0.4-1.6,0.3-2.2-0.2c-0.1-0.1-0.3-0.2-0.4-0.4
			c-0.9-0.8-1.9-1.2-3.1-1.3c-0.2,0-0.4,0-0.5,0c-0.6,0.1-1.2,0.1-1.8,0.1c-0.3,0-0.5-0.1-0.7-0.4c-0.2-0.3-0.2-0.7,0.1-1
			c0.8-0.9,1.6-1.6,2.7-2.2c1.1-0.6,2.3-1.1,3.6-1.1c1.5,0,2.6,0.6,3.3,2C284.2,345.1,284.4,345.8,284.4,346.4z"/>
	</g>
	<g>
		<path class="st10" d="M180.3,352.2c-0.6-1-1.4-1.8-2.2-2.6c-1.3-1.3-2.7-2.4-4.3-3.2c-1-0.5-2.2-0.9-3.3-0.9c-0.5,0-1,0-1.5,0
			c-0.2,0-0.4,0-0.5,0.1c-1.2,0.3-1.9,1.1-2,2.5c-0.1,1,0.1,1.9,0.7,2.7c0.4,0.5,0.9,0.9,1.5,1.2c0.5,0.2,1.1,0.2,1.6,0
			c0.5-0.1,1-0.3,1.5-0.4c1.5-0.5,2.9-0.2,4.3,0.3c1.1,0.5,2.2,1,3.2,1.7c0.2,0.1,0.4,0.2,0.6,0.3c0.4,0.2,0.6,0.1,0.9-0.2
			c0.2-0.2,0.2-0.6,0.1-0.9C180.6,352.7,180.5,352.5,180.3,352.2z"/>
		<path class="st10" d="M172.2,360.6c0.6,1,1.4,1.4,2.5,1.4c0.9,0,1.5-0.5,1.7-1.4c0-0.2,0.1-0.3,0.1-0.5c0.3-1.2,1-2.1,2-2.7
			c0.1-0.1,0.3-0.2,0.5-0.2c0.5-0.3,1.1-0.5,1.6-0.8c0.3-0.1,0.4-0.4,0.4-0.7c0-0.4-0.2-0.7-0.6-0.8c-1.1-0.3-2.3-0.5-3.4-0.5
			c-1.3,0.1-2.6,0.3-3.7,0.9c-1.3,0.8-1.9,1.9-1.7,3.4C171.7,359.4,171.8,360.1,172.2,360.6z"/>
	</g>
	<g>
		<path class="st11" d="M142.6,91.2c1.1,0,1.7,0.7,1.4,1.6c-0.1,0.4-0.3,0.7-0.6,1c-0.9,1-1.7,2-2.6,2.9c-1.5,1.6-2.9,3.2-4.4,4.8
			c-0.7,0.8-1.4,1.6-2,2.4c-0.9,1.2-1.8,2.4-2.7,3.6c-0.2,0.2-0.3,0.4-0.5,0.6c-0.4,0.4-1,0.5-1.5,0.2c-0.5-0.3-0.7-0.8-0.5-1.3
			c0.2-0.6,0.4-1.1,0.7-1.6c0.9-1.3,1.8-2.6,2.7-3.8c1.9-2.4,3.8-4.8,5.8-7.2c0.9-1.1,1.9-2,3.2-2.6
			C141.9,91.4,142.4,91.2,142.6,91.2z"/>
		<path class="st11" d="M142,78.2c-0.6,0-1.1-0.2-1.6-0.6c-0.4-0.3-0.8-0.6-1.1-1c-3.1-3-6.1-6-9.2-9c-1.1-1.1-2.1-2.2-3.2-3.3
			c-0.1-0.2-0.3-0.3-0.4-0.5c-0.3-0.6-0.2-1.2,0.3-1.5c0.5-0.3,0.9-0.3,1.4,0.2c1.2,1.1,2.3,2.2,3.5,3.2c1.3,1.1,2.6,2.2,3.9,3.3
			c2.1,1.8,4.2,3.6,6.1,5.7c0.4,0.4,0.8,0.8,1.1,1.3c0.2,0.3,0.4,0.6,0.4,0.9C143.3,77.8,142.8,78.2,142,78.2z"/>
		<path class="st11" d="M123,88.1c-0.6,0-1.1-0.3-1.2-0.8c-0.2-0.5,0.1-1.1,0.6-1.4c0.4-0.2,0.7-0.3,1.1-0.4c2.3-0.7,4.6-1.4,7-2
			c1.9-0.5,3.8-1,5.7-1.4c1-0.2,2-0.3,3-0.4c0.5,0,1,0,1.4,0.2c0.9,0.3,1.1,1.3,0.4,2c-0.3,0.3-0.8,0.6-1.3,0.7
			c-1.1,0.3-2.2,0.6-3.3,0.8c-3,0.6-6.1,1.3-9.1,1.9c-1.2,0.3-2.4,0.5-3.6,0.8C123.5,88,123.2,88.1,123,88.1z"/>
	</g>
	<g>
		<path class="st11" d="M288.5,87.8c0.1,0,0.4,0.1,0.7,0.2c1.7,0.7,3.2,1.7,4.6,2.9c2,1.6,4,3.3,5.9,5c1.6,1.4,3.1,3,4.7,4.5
			c1,0.9,2,1.9,3.1,2.8c0.3,0.2,0.5,0.5,0.7,0.7c0.3,0.4,0.4,0.9,0.1,1.3c-0.2,0.5-0.7,0.6-1.2,0.6c-0.4,0-0.8-0.2-1.2-0.5
			c-1-0.8-2-1.5-3-2.3c-1.6-1.3-3.2-2.5-4.8-3.8c-2.3-1.9-4.5-3.9-6.7-5.8c-1-0.8-2-1.6-3-2.4c-0.3-0.3-0.7-0.5-0.9-0.8
			c-0.2-0.2-0.3-0.5-0.4-0.7C286.8,88.6,287.4,87.8,288.5,87.8z"/>
		<path class="st11" d="M288.6,77.5c-0.7,0-1.2-0.2-1.4-0.7c-0.2-0.5-0.1-1,0.3-1.4c0.4-0.4,0.9-0.8,1.5-1.1
			c1.4-0.8,2.8-1.5,4.3-2.3c1.8-0.9,3.7-1.9,5.5-2.7c1.8-0.8,3.6-1.6,5.5-2.4c1-0.4,1.9-0.8,2.9-1.3c0.4-0.2,0.8-0.3,1.3-0.5
			c0.8-0.2,1.5,0.1,1.8,0.7c0.3,0.7,0,1.4-0.8,1.8c-1.2,0.6-2.4,1.3-3.6,1.9c-3.4,1.7-6.8,3.4-10.2,5.1c-1.8,0.9-3.7,1.7-5.6,2.5
			C289.5,77.3,289,77.4,288.6,77.5z"/>
		<path class="st11" d="M293.1,81.7c3,0.1,6.1,0.3,9.3,0.9c1.5,0.3,3,0.5,4.5,0.7c0.2,0,0.4,0.1,0.6,0.1c0.5,0.2,0.7,0.6,0.7,1
			c-0.1,0.5-0.4,0.9-0.9,0.9c-0.3,0-0.7,0-1.1-0.1c-3.5-0.4-7-0.7-10.5-0.8c-1.7,0-3.4-0.1-5.1-0.1c-0.6,0-1.2-0.1-1.7-0.3
			c-0.6-0.2-0.8-0.7-0.8-1.1c0.1-0.4,0.4-0.8,1-0.9c0.7-0.1,1.4-0.2,2.1-0.2C291.8,81.6,292.3,81.7,293.1,81.7z"/>
	</g>
	<path class="st0" d="M180,197.1c-0.7,0.3-2.2-1.9-4.4-2.1c-1.9-0.2-3.6,1.3-4.8,3.3c-4.9-4.4-8.6-0.5-9.6,3c-4-2.7-8.3,2.7-6.6,5.7
		c-4.4-0.9-7.3,3.2-5.8,7.2c-0.1-0.1-2.1,0.4-3.2,1.7c-1.2,1.2-1.5,3.1,0,5.3c0.7,0.9,2.3,2,4.5,3.1c3,1.4,7,2.7,11,3.4
		c1.1,0.2,2.2,0.3,3.3,0.4c0.4,0.6,0.9,1.1,1.4,1.6c1.3,1.1,2.6,1.3,4,1c1.4-0.3,8-3.2,9.9-4.4c0.9-0.6,1.7-1.2,2.1-1.8
		c0.9-1.5,0.5-3.1-0.2-4.7c1.8-3.4,3.4-7.3,4.5-11c1.7-5.8,1.7-10.7,1-11.5C184.3,194.3,181.7,196.3,180,197.1z"/>
</g>
</svg>
